<svg width="73" height="23" viewBox="0 0 73 23" fill="none" xmlns="http://www.w3.org/2000/svg">
<path fill-rule="evenodd" clip-rule="evenodd" d="M42.6668 5.9165C42.9984 5.9165 43.3163 6.0482 43.5507 6.28262C43.7851 6.51704 43.9168 6.83498 43.9168 7.1665V18.8332C43.9168 19.1647 43.7851 19.4826 43.5507 19.7171C43.3163 19.9515 42.9984 20.0832 42.6668 20.0832C42.3353 20.0832 42.0174 19.9515 41.7829 19.7171C41.5485 19.4826 41.4168 19.1647 41.4168 18.8332V7.1665C41.4168 6.83498 41.5485 6.51704 41.7829 6.28262C42.0174 6.0482 42.3353 5.9165 42.6668 5.9165ZM39.3335 8.4165C39.665 8.4165 39.983 8.5482 40.2174 8.78262C40.4518 9.01704 40.5835 9.33498 40.5835 9.6665V18.8332C40.5835 19.1647 40.4518 19.4826 40.2174 19.7171C39.983 19.9515 39.665 20.0832 39.3335 20.0832C39.002 20.0832 38.684 19.9515 38.4496 19.7171C38.2152 19.4826 38.0835 19.1647 38.0835 18.8332V9.6665C38.0835 9.33498 38.2152 9.01704 38.4496 8.78262C38.684 8.5482 39.002 8.4165 39.3335 8.4165ZM36.0002 10.9165C36.3317 10.9165 36.6496 11.0482 36.884 11.2826C37.1185 11.517 37.2502 11.835 37.2502 12.1665V18.8332C37.2502 19.1647 37.1185 19.4826 36.884 19.7171C36.6496 19.9515 36.3317 20.0832 36.0002 20.0832C35.6686 20.0832 35.3507 19.9515 35.1163 19.7171C34.8819 19.4826 34.7502 19.1647 34.7502 18.8332V12.1665C34.7502 11.835 34.8819 11.517 35.1163 11.2826C35.3507 11.0482 35.6686 10.9165 36.0002 10.9165ZM32.6668 13.4165C32.9984 13.4165 33.3163 13.5482 33.5507 13.7826C33.7851 14.017 33.9168 14.335 33.9168 14.6665V18.8332C33.9168 19.1647 33.7851 19.4826 33.5507 19.7171C33.3163 19.9515 32.9984 20.0832 32.6668 20.0832C32.3353 20.0832 32.0174 19.9515 31.7829 19.7171C31.5485 19.4826 31.4168 19.1647 31.4168 18.8332V14.6665C31.4168 14.335 31.5485 14.017 31.7829 13.7826C32.0174 13.5482 32.3353 13.4165 32.6668 13.4165ZM29.3335 15.9165C29.665 15.9165 29.983 16.0482 30.2174 16.2826C30.4518 16.517 30.5835 16.835 30.5835 17.1665V18.8332C30.5835 19.1647 30.4518 19.4826 30.2174 19.7171C29.983 19.9515 29.665 20.0832 29.3335 20.0832C29.002 20.0832 28.684 19.9515 28.4496 19.7171C28.2152 19.4826 28.0835 19.1647 28.0835 18.8332V17.1665C28.0835 16.835 28.2152 16.517 28.4496 16.2826C28.684 16.0482 29.002 15.9165 29.3335 15.9165Z" fill="black"/>
<path d="M71.8917 5.66667H70.5V4H65.5V5.66667H64.1083C63.8144 5.66667 63.5325 5.78344 63.3246 5.99129C63.1168 6.19914 63 6.48105 63 6.775V19.5583C63 20.1667 63.5 20.6667 64.1083 20.6667H71.8917C72.1856 20.6667 72.4675 20.5499 72.6754 20.342C72.8832 20.1342 73 19.8523 73 19.5583V6.775C73 6.16667 72.5 5.66667 71.8917 5.66667Z" fill="black"/>
<path fill-rule="evenodd" clip-rule="evenodd" d="M17.9185 2.66067C17.4876 1.93087 16.8561 1.26778 16.0601 0.709277L17.0707 0C17.9993 0.651652 18.7359 1.4253 19.2385 2.27676C19.7411 3.12822 19.9998 4.04081 19.9998 4.96244C19.9998 5.88406 19.7411 6.79666 19.2385 7.64811C18.7359 8.49957 17.9993 9.27322 17.0707 9.92487L16.0601 9.21559C17.2587 8.37443 18.0751 7.30271 18.4059 6.13595C18.7367 4.96918 18.567 3.75978 17.9185 2.66067Z" fill="black"/>
<path fill-rule="evenodd" clip-rule="evenodd" d="M13.9592 3.81216C13.744 3.44722 13.4285 3.11559 13.0307 2.83622L14.0406 2.12744C14.5712 2.49981 14.9921 2.94189 15.2793 3.42842C15.5664 3.91496 15.7142 4.43642 15.7142 4.96305C15.7142 5.48967 15.5664 6.01114 15.2793 6.49767C14.9921 6.98421 14.5712 7.42628 14.0406 7.79865L13.0307 7.08988C13.6301 6.66918 14.0383 6.13316 14.2035 5.54962C14.3688 4.96609 14.2838 4.36127 13.9592 3.81166M6.96971 2.83622C6.57169 3.1155 6.25597 3.44707 6.04056 3.81199C5.82516 4.17692 5.71429 4.56805 5.71429 4.96305C5.71429 5.35805 5.82516 5.74917 6.04056 6.1141C6.25597 6.47902 6.57169 6.81059 6.96971 7.08988L5.95978 7.79865C5.42917 7.42628 5.00827 6.98421 4.7211 6.49767C4.43394 6.01114 4.28613 5.48967 4.28613 4.96305C4.28613 4.43642 4.43394 3.91496 4.7211 3.42842C5.00827 2.94189 5.42917 2.49981 5.95978 2.12744L6.96971 2.83622Z" fill="black"/>
<path fill-rule="evenodd" clip-rule="evenodd" d="M3.9397 0.709277C2.3325 1.83731 1.42958 3.36721 1.42958 4.96244C1.42958 6.55766 2.3325 8.08756 3.9397 9.21559L2.92907 9.92487C2.00045 9.27322 1.26382 8.49957 0.761243 7.64811C0.258671 6.79666 0 5.88406 0 4.96244C0 4.04081 0.258671 3.12822 0.761243 2.27676C1.26382 1.4253 2.00045 0.651652 2.92907 0L3.9397 0.709277Z" fill="black"/>
<path d="M11.4287 4.96247C11.4287 5.22836 11.2782 5.48335 11.0103 5.67136C10.7424 5.85936 10.3791 5.96499 10.0002 5.96499C9.62139 5.96499 9.25805 5.85936 8.99016 5.67136C8.72228 5.48335 8.57178 5.22836 8.57178 4.96247C8.57178 4.69659 8.72228 4.4416 8.99016 4.25359C9.25805 4.06558 9.62139 3.95996 10.0002 3.95996C10.3791 3.95996 10.7424 4.06558 11.0103 4.25359C11.2782 4.4416 11.4287 4.69659 11.4287 4.96247Z" fill="black"/>
<path fill-rule="evenodd" clip-rule="evenodd" d="M0.000976562 12.4813C0.000976562 12.0825 0.226724 11.7 0.628556 11.418C1.03039 11.136 1.57539 10.9775 2.14367 10.9775H17.8567C18.425 10.9775 18.97 11.136 19.3719 11.418C19.7737 11.7 19.9994 12.0825 19.9994 12.4813V18.4964C19.9994 18.8952 19.7737 19.2777 19.3719 19.5597C18.97 19.8417 18.425 20.0002 17.8567 20.0002H2.14367C1.57539 20.0002 1.03039 19.8417 0.628556 19.5597C0.226724 19.2777 0.000976562 18.8952 0.000976562 18.4964V12.4813ZM8.57175 12.9826C8.57175 12.8496 8.4965 12.7221 8.36255 12.6281C8.22861 12.5341 8.04694 12.4813 7.85752 12.4813H4.1078C3.94275 12.4814 3.78283 12.5216 3.65522 12.595C3.52762 12.6685 3.44021 12.7707 3.40786 12.8843L2.87218 14.764C2.84455 14.8612 2.85858 14.962 2.91251 15.0536C2.96644 15.1452 3.05784 15.2235 3.17517 15.2786C3.2925 15.3338 3.43049 15.3633 3.5717 15.3634C3.71291 15.3635 3.851 15.3343 3.96853 15.2793C4.11852 15.2091 4.78489 14.9876 5.71482 14.9876C6.09367 14.9876 6.45701 15.0932 6.7249 15.2812C6.99279 15.4692 7.14328 15.7242 7.14328 15.9901C7.14328 16.256 6.99279 16.511 6.7249 16.699C6.45701 16.887 6.09367 16.9926 5.71482 16.9926H5.12058C4.70847 16.9926 4.36778 16.8122 4.24422 16.5716C4.17982 16.4465 4.04724 16.3444 3.87566 16.2879C3.70408 16.2314 3.50754 16.2251 3.32929 16.2703C3.15104 16.3155 3.00568 16.4085 2.92518 16.529C2.84468 16.6494 2.83563 16.7873 2.90004 16.9124C3.06722 17.2311 3.37015 17.506 3.76768 17.6997C4.16521 17.8935 4.63806 17.9966 5.12201 17.9951H5.71482C6.47253 17.9951 7.1992 17.7839 7.73497 17.4079C8.27075 17.0319 8.57175 16.5219 8.57175 15.9901C8.57175 15.4583 8.27075 14.9484 7.73497 14.5723C7.1992 14.1963 6.47253 13.9851 5.71482 13.9851C5.27914 13.9851 4.87703 14.0212 4.52491 14.0763L4.69347 13.4838H7.85752C8.04694 13.4838 8.22861 13.431 8.36255 13.337C8.4965 13.243 8.57175 13.1155 8.57175 12.9826ZM16.2519 13.8718C16.3143 13.8227 16.3624 13.7654 16.3934 13.7033C16.4243 13.6411 16.4375 13.5753 16.4322 13.5096C16.4269 13.4439 16.4032 13.3795 16.3624 13.3202C16.3217 13.2609 16.2647 13.2079 16.1947 13.164C15.6292 12.8091 14.9293 12.5766 14.1797 12.4946C13.43 12.4127 12.6626 12.4847 11.97 12.7021C11.2774 12.9195 10.6892 13.273 10.2766 13.7198C9.86388 14.1666 9.64429 14.6877 9.64429 15.2202C9.64429 15.7526 9.86388 16.2737 10.2766 16.7205C10.6892 17.1674 11.2774 17.5208 11.97 17.7382C12.6626 17.9556 13.43 18.0277 14.1797 17.9457C14.9293 17.8638 15.6292 17.6313 16.1947 17.2763C16.2697 17.2294 16.3297 17.1718 16.3708 17.1075C16.4119 17.0431 16.4332 16.9734 16.4333 16.9029V15.2202C16.4333 15.0872 16.358 14.9597 16.2241 14.8657C16.0901 14.7717 15.9085 14.7189 15.7191 14.7189H13.5749C13.3855 14.7189 13.2038 14.7717 13.0699 14.8657C12.936 14.9597 12.8607 15.0872 12.8607 15.2202C12.8607 15.3531 12.936 15.4806 13.0699 15.5746C13.2038 15.6686 13.3855 15.7214 13.5749 15.7214H15.0048V16.6613C14.6295 16.8444 14.1899 16.952 13.7337 16.9722C13.2775 16.9925 12.8221 16.9247 12.4169 16.7762C12.0117 16.6277 11.6722 16.4042 11.4352 16.1299C11.1981 15.8556 11.0726 15.541 11.0723 15.2202C11.0721 14.881 11.2118 14.5491 11.4746 14.2645C11.7373 13.9799 12.1119 13.7548 12.553 13.6164C12.9942 13.478 13.483 13.4322 13.9604 13.4846C14.4378 13.5369 14.8834 13.6851 15.2434 13.9114C15.3133 13.9552 15.3949 13.989 15.4835 14.0107C15.572 14.0324 15.6658 14.0417 15.7595 14.0379C15.8531 14.0342 15.9448 14.0176 16.0293 13.989C16.1138 13.9604 16.1894 13.9209 16.2519 13.8718Z" fill="black"/>
</svg>
