<svg width="20" height="20" viewBox="0 0 20 20" fill="none" xmlns="http://www.w3.org/2000/svg">
<path d="M15.8752 4.09155C15.1111 3.31997 14.201 2.70819 13.1981 2.29185C12.1952 1.87551 11.1194 1.66295 10.0335 1.66655C5.4835 1.66655 1.77516 5.37488 1.77516 9.92488C1.77516 11.3832 2.1585 12.7999 2.87516 14.0499L1.7085 18.3332L6.0835 17.1832C7.29183 17.8415 8.65016 18.1915 10.0335 18.1915C14.5835 18.1915 18.2918 14.4832 18.2918 9.93322C18.2918 7.72488 17.4335 5.64988 15.8752 4.09155ZM10.0335 16.7915C8.80016 16.7915 7.59183 16.4582 6.5335 15.8332L6.2835 15.6832L3.6835 16.3665L4.37516 13.8332L4.2085 13.5749C3.52312 12.4808 3.15927 11.2159 3.1585 9.92488C3.1585 6.14155 6.24183 3.05822 10.0252 3.05822C11.8585 3.05822 13.5835 3.77488 14.8752 5.07488C15.5148 5.71143 16.0218 6.46867 16.3665 7.30266C16.7113 8.13664 16.887 9.03079 16.8835 9.93322C16.9002 13.7165 13.8168 16.7915 10.0335 16.7915ZM13.8002 11.6582C13.5918 11.5582 12.5752 11.0582 12.3918 10.9832C12.2002 10.9165 12.0668 10.8832 11.9252 11.0832C11.7835 11.2915 11.3918 11.7582 11.2752 11.8915C11.1585 12.0332 11.0335 12.0499 10.8252 11.9415C10.6168 11.8415 9.95016 11.6165 9.16683 10.9165C8.55016 10.3665 8.14183 9.69155 8.01683 9.48322C7.90016 9.27488 8.00016 9.16655 8.1085 9.05822C8.20016 8.96655 8.31683 8.81655 8.41683 8.69988C8.51683 8.58321 8.5585 8.49155 8.62516 8.35821C8.69183 8.21655 8.6585 8.09988 8.6085 7.99988C8.5585 7.89988 8.14183 6.88321 7.97516 6.46655C7.8085 6.06655 7.6335 6.11655 7.5085 6.10821H7.1085C6.96683 6.10821 6.75016 6.15822 6.5585 6.36655C6.37516 6.57488 5.84183 7.07488 5.84183 8.09155C5.84183 9.10821 6.5835 10.0915 6.6835 10.2249C6.7835 10.3665 8.14183 12.4499 10.2085 13.3415C10.7002 13.5582 11.0835 13.6832 11.3835 13.7749C11.8752 13.9332 12.3252 13.9082 12.6835 13.8582C13.0835 13.7999 13.9085 13.3582 14.0752 12.8749C14.2502 12.3915 14.2502 11.9832 14.1918 11.8915C14.1335 11.7999 14.0085 11.7582 13.8002 11.6582Z" fill="black"/>
</svg>
