<svg width="20" height="20" viewBox="0 0 20 20" fill="none" xmlns="http://www.w3.org/2000/svg">
<path d="M9.89311 18.1375C8.90144 18.1375 8.23978 17.6692 7.64894 17.2567C7.22895 16.9592 6.83561 16.6767 6.37145 16.5983C6.15043 16.5605 5.92651 16.5421 5.70228 16.5433C5.30895 16.5433 4.99645 16.6025 4.77395 16.6475C4.63228 16.6725 4.51395 16.6958 4.42061 16.6958C4.32395 16.6958 4.20145 16.6692 4.15395 16.5058C4.11228 16.3725 4.08645 16.2458 4.06061 16.1233C3.99395 15.815 3.93811 15.6258 3.82228 15.6067C2.58145 15.4175 1.83895 15.1317 1.69395 14.7933C1.68228 14.7567 1.66811 14.7183 1.66811 14.6892C1.65978 14.5858 1.73478 14.5 1.83895 14.4808C2.82311 14.3183 3.70728 13.7942 4.45395 12.9325C5.03395 12.2633 5.31645 11.6167 5.34228 11.5467C5.34228 11.5383 5.34978 11.5383 5.34978 11.5383C5.492 11.2456 5.52033 10.9969 5.43478 10.7925C5.27478 10.4092 4.74728 10.2458 4.38728 10.1342C4.29478 10.1092 4.21645 10.0792 4.14978 10.0567C3.84145 9.93417 3.32811 9.67333 3.39561 9.31333C3.44395 9.05333 3.78895 8.8675 4.07145 8.8675C4.14978 8.86639 4.21645 8.88028 4.27145 8.90917C4.58811 9.05333 4.87395 9.1275 5.11895 9.1275C5.42395 9.1275 5.56895 9.0125 5.60561 8.97583C5.59785 8.811 5.58812 8.64627 5.57645 8.48167C5.50145 7.34417 5.41645 5.9325 5.77645 5.12333C6.85811 2.70083 9.15394 2.50667 9.83394 2.50667L10.1306 2.5H10.1723C10.8514 2.5 13.1473 2.68917 14.2289 5.11583C14.5931 5.925 14.5039 7.34083 14.4289 8.47417L14.4214 8.53C14.4148 8.68167 14.4031 8.82667 14.3964 8.97583C14.4331 9.005 14.5664 9.11667 14.8414 9.12C15.0798 9.11333 15.3398 9.035 15.6364 8.90083C15.7185 8.86524 15.807 8.84653 15.8964 8.84583C16.0006 8.84583 16.1048 8.87083 16.1939 8.90083H16.2014C16.4506 8.99417 16.6139 9.16833 16.6139 9.35083C16.6214 9.52167 16.4873 9.78167 15.8523 10.0383C15.7856 10.0633 15.7073 10.0942 15.6148 10.1158C15.2614 10.2242 14.7339 10.395 14.5664 10.7742C14.4739 10.9742 14.5106 11.2308 14.6523 11.5208C14.6523 11.5275 14.6598 11.5275 14.6598 11.5275C14.7006 11.6317 15.7739 14.0692 18.1631 14.4667C18.2119 14.4749 18.2562 14.5005 18.2876 14.5388C18.319 14.5771 18.3354 14.6255 18.3339 14.675C18.3345 14.7122 18.3259 14.7481 18.3081 14.7825C18.1631 15.1242 17.4273 15.4025 16.1789 15.5958C16.0639 15.6142 16.0081 15.8042 15.9414 16.1125C15.9149 16.241 15.8841 16.3686 15.8489 16.495C15.8114 16.6175 15.7331 16.6842 15.5989 16.6842H15.5814C15.4626 16.682 15.3443 16.6684 15.2281 16.6433C14.9227 16.5784 14.6112 16.546 14.2989 16.5467C14.075 16.5473 13.8515 16.566 13.6306 16.6025C13.1698 16.6775 12.7723 16.9633 12.3523 17.2608C11.7539 17.6692 11.0889 18.1375 10.1048 18.1375H9.89311Z" fill="black"/>
</svg>
