<svg width="39" height="37" viewBox="0 0 39 37" fill="none" xmlns="http://www.w3.org/2000/svg">
<path d="M19.2414 35.3742C15.658 35.3742 12.1551 34.3749 9.1756 32.5027C6.19611 30.6305 3.87388 27.9695 2.50258 24.8562C1.13127 21.7429 0.772475 18.3171 1.47156 15.012C2.17065 11.707 3.89622 8.67105 6.43006 6.28822C8.96391 3.90539 12.1922 2.28266 15.7068 1.62524C19.2213 0.967822 22.8642 1.30523 26.1749 2.59481C29.4855 3.88439 32.3151 6.06821 34.3059 8.87012C36.2968 11.672 37.3594 14.9662 37.3594 18.336C37.3594 21.153 36.6347 23.809 35.3463 26.149L37.3594 35.3742L27.5495 33.481C25.0613 34.6926 22.2349 35.3742 19.2414 35.3742Z" stroke="black" stroke-width="2" stroke-linecap="round" stroke-linejoin="round"/>
</svg>
