<svg width="10" height="11" viewBox="0 0 10 11" fill="none" xmlns="http://www.w3.org/2000/svg">
<path d="M10 0V7.63889C10 8.20616 9.80592 8.75019 9.46046 9.15131C9.115 9.55243 8.64645 9.77778 8.1579 9.77778C7.66934 9.77778 7.20079 9.55243 6.85533 9.15131C6.50987 8.75019 6.31579 8.20616 6.31579 7.63889C6.31579 7.07162 6.50987 6.52759 6.85533 6.12647C7.20079 5.72535 7.66934 5.5 8.1579 5.5C8.44211 5.5 8.71053 5.57333 8.94737 5.70778V2.12056L3.68421 3.42222V8.86111C3.68421 9.42838 3.49013 9.97241 3.14467 10.3735C2.79921 10.7747 2.33066 11 1.84211 11C1.35355 11 0.885002 10.7747 0.53954 10.3735C0.194078 9.97241 0 9.42838 0 8.86111C0 8.29384 0.194078 7.74981 0.53954 7.34869C0.885002 6.94757 1.35355 6.72222 1.84211 6.72222C2.12632 6.72222 2.39474 6.79556 2.63158 6.93V1.83333L10 0Z" fill="black"/>
</svg>
