<svg width="28" height="28" viewBox="0 0 28 28" fill="none" xmlns="http://www.w3.org/2000/svg">
<path d="M7.9255 23.6844C8.73675 23.3269 9.64425 23.2595 10.494 23.4932C11.5528 23.782 12.6459 23.9277 13.75 23.925C20.0544 23.925 24.75 19.4067 24.75 13.3375C24.75 7.26825 20.0544 2.75 13.75 2.75C7.44562 2.75 2.75 7.26962 2.75 13.3375C2.75 16.4587 3.982 19.2115 6.14075 21.142C6.53298 21.4894 6.85016 21.9132 7.07288 22.3875C7.2956 22.8618 7.41916 23.3766 7.436 23.9002L7.9255 23.6844ZM13.75 0C21.4967 0 27.5 5.67462 27.5 13.3375C27.5 21.0004 21.4954 26.675 13.75 26.675C12.4056 26.6767 11.0669 26.4991 9.76937 26.147C9.52573 26.08 9.26645 26.0989 9.03512 26.2006L6.30575 27.4051C6.14093 27.478 5.96074 27.5092 5.78101 27.4961C5.60129 27.483 5.42754 27.4259 5.27505 27.3299C5.12255 27.2339 4.99598 27.1019 4.90645 26.9455C4.81693 26.7891 4.7672 26.6131 4.76163 26.433L4.68738 23.9855C4.68201 23.8366 4.64646 23.6904 4.58288 23.5557C4.51929 23.4209 4.42901 23.3005 4.3175 23.2018C1.64312 20.8092 0 17.347 0 13.3375C0 5.67462 6.00325 0 13.75 0ZM5.49312 17.2384L9.5315 10.8309C9.68344 10.5896 9.88375 10.3825 10.1198 10.2226C10.3558 10.0627 10.6224 9.95343 10.9028 9.90175C11.1832 9.85006 11.4712 9.85707 11.7488 9.92233C12.0263 9.98758 12.2873 10.1097 12.5152 10.2809L15.7272 12.6871C15.8704 12.7952 16.0449 12.8537 16.2243 12.8537C16.4037 12.8537 16.5782 12.7952 16.7214 12.6871L21.0595 9.394C21.6384 8.954 22.3946 9.647 22.0069 10.2616L17.9685 16.6691C17.8166 16.9104 17.6162 17.1175 17.3802 17.2774C17.1442 17.4373 16.8776 17.5466 16.5972 17.5983C16.3168 17.6499 16.0288 17.6429 15.7512 17.5777C15.4737 17.5124 15.2127 17.3903 14.9848 17.2191L11.7728 14.8129C11.6296 14.7048 11.4551 14.6463 11.2757 14.6463C11.0963 14.6463 10.9218 14.7048 10.7786 14.8129L6.4405 18.1087C5.86163 18.5474 5.10537 17.8544 5.49312 17.2384Z" fill="black"/>
</svg>
