<svg width="30" height="30" viewBox="0 0 30 30" fill="none" xmlns="http://www.w3.org/2000/svg">
<path d="M21.6964 0C18.9308 0 16.5094 1.38783 15 3.73369C13.4906 1.38783 11.0692 0 8.30357 0C6.10209 0.00289558 3.99148 1.02471 2.4348 2.84127C0.878116 4.65783 0.00248134 7.12078 0 9.68979C0 20.6299 13.9004 29.4851 14.4924 29.8508C14.6484 29.9487 14.8228 30 15 30C15.1772 30 15.3516 29.9487 15.5076 29.8508C16.0996 29.4851 30 20.6299 30 9.68979C29.9975 7.12078 29.1219 4.65783 27.5652 2.84127C26.0085 1.02471 23.8979 0.00289558 21.6964 0ZM15 27.3189C12.5545 25.656 2.14286 18.0808 2.14286 9.68979C2.14498 7.78385 2.79474 5.9567 3.94964 4.609C5.10453 3.2613 6.6703 2.50307 8.30357 2.50059C10.9085 2.50059 13.0955 4.11972 14.0089 6.72033C14.0897 6.94965 14.227 7.14579 14.4034 7.28382C14.5799 7.42186 14.7876 7.49556 15 7.49556C15.2124 7.49556 15.4201 7.42186 15.5966 7.28382C15.773 7.14579 15.9103 6.94965 15.9911 6.72033C16.9045 4.11503 19.0915 2.50059 21.6964 2.50059C23.3297 2.50307 24.8955 3.2613 26.0504 4.609C27.2053 5.9567 27.855 7.78385 27.8571 9.68979C27.8571 18.0683 17.4429 25.6545 15 27.3189Z" fill="black"/>
</svg>
