<svg width="37" height="35" viewBox="0 0 37 35" fill="none" xmlns="http://www.w3.org/2000/svg">
<path d="M26.2064 0.569336C22.8659 0.569336 19.9411 2.14574 18.118 4.81035C16.2949 2.14574 13.3701 0.569336 10.0296 0.569336C7.3705 0.572625 4.82117 1.73328 2.94091 3.79667C1.06065 5.86006 0.00299713 8.65767 0 11.5757C0 24.0023 16.7899 34.0608 17.5049 34.4762C17.6933 34.5874 17.904 34.6457 18.118 34.6457C18.332 34.6457 18.5426 34.5874 18.7311 34.4762C19.4461 34.0608 36.236 24.0023 36.236 11.5757C36.233 8.65767 35.1753 5.86006 33.295 3.79667C31.4148 1.73328 28.8655 0.572625 26.2064 0.569336ZM18.118 31.6003C15.1641 29.7115 2.58828 21.1069 2.58828 11.5757C2.59085 9.41084 3.37567 7.33541 4.77063 5.80459C6.16559 4.27377 8.05682 3.41252 10.0296 3.4097C13.176 3.4097 15.8176 5.24883 16.9209 8.20281C17.0184 8.46329 17.1843 8.68608 17.3974 8.84287C17.6106 8.99966 17.8614 9.08337 18.118 9.08337C18.3746 9.08337 18.6254 8.99966 18.8385 8.84287C19.0517 8.68608 19.2176 8.46329 19.3151 8.20281C20.4183 5.24351 23.06 3.4097 26.2064 3.4097C28.1791 3.41252 30.0704 4.27377 31.4653 5.80459C32.8603 7.33541 33.6451 9.41084 33.6477 11.5757C33.6477 21.0927 21.0686 29.7097 18.118 31.6003Z" fill="black"/>
</svg>
